<svg width="28" height="25" viewBox="0 0 28 25" fill="none" xmlns="http://www.w3.org/2000/svg">
<g clip-path="url(#clip0_433_516)">
<g clip-path="url(#clip1_433_516)">
<path d="M21.0391 20.6999H6.09783C4.14832 20.6999 2.5625 19.1141 2.5625 17.1646V7.7321C2.5625 5.78284 4.14857 4.19678 6.09783 4.19678H21.0391C22.9884 4.19678 24.5742 5.78284 24.5742 7.7321V17.1646C24.5742 19.1141 22.9884 20.6999 21.0391 20.6999ZM6.09783 5.23059C4.71843 5.23059 3.59632 6.3527 3.59632 7.7321V17.1646C3.59632 18.544 4.71843 19.6664 6.09783 19.6664H21.0391C22.4185 19.6664 23.5406 18.544 23.5406 17.1646V7.7321C23.5406 6.3527 22.4185 5.23059 21.0391 5.23059H6.09783Z" fill="#F2F2F2"/>
<path d="M5.266 7.78106C7.90838 10.3559 10.5508 12.9306 13.1931 15.5055C13.6857 15.9853 14.4417 15.231 13.9484 14.7502C11.306 12.1756 8.66363 9.6007 6.02124 7.02606C5.52867 6.54596 4.77269 7.30047 5.266 7.78106Z" fill="#F2F2F2"/>
<path d="M13.9509 15.5054C16.5932 12.9308 19.2356 10.3559 21.878 7.78127C22.3711 7.30068 21.6156 6.54593 21.1228 7.02603C18.4804 9.60066 15.838 12.1755 13.1956 14.7502C12.7026 15.2308 13.458 15.9855 13.9509 15.5054Z" fill="#F2F2F2"/>
<path d="M21.8407 17.3276C20.0824 15.6601 18.324 13.9928 16.5657 12.3253C16.067 11.8525 15.3106 12.6063 15.8105 13.0805C17.5687 14.748 19.3272 16.4153 21.0854 18.0828C21.5841 18.5556 22.3406 17.8016 21.8407 17.3276Z" fill="#F2F2F2"/>
<path d="M6.09298 18.0829C7.85123 16.4154 9.60972 14.7481 11.368 13.0806C11.8676 12.6066 11.1117 11.8524 10.6127 12.3254C8.85447 13.9929 7.09598 15.6601 5.33774 17.3276C4.83807 17.8016 5.59405 18.5561 6.09298 18.0829Z" fill="#F2F2F2"/>
</g>
</g>
<defs>
<clipPath id="clip0_433_516">
<rect width="27" height="24" fill="white" transform="translate(0.644531 0.64502)"/>
</clipPath>
<clipPath id="clip1_433_516">
<rect width="24" height="24" fill="white" transform="translate(2.14453 0.644775)"/>
</clipPath>
</defs>
</svg>
