<svg width="25" height="25" viewBox="0 0 25 25" fill="none" xmlns="http://www.w3.org/2000/svg">
<path d="M3.20123 10.8616L14.1397 21.8001C14.2362 21.8965 14.3594 21.9618 14.4933 21.9877C14.6272 22.0135 14.7658 21.9986 14.8912 21.945L20.3017 19.6277C20.4042 19.5837 20.4944 19.5152 20.5643 19.4282C20.6342 19.3412 20.6818 19.2385 20.7028 19.1289C20.7238 19.0193 20.7177 18.9062 20.6849 18.7995C20.6522 18.6929 20.5938 18.5958 20.5148 18.5169L17.2303 15.231C17.129 15.1296 16.9983 15.0626 16.8568 15.0396C16.7154 15.0165 16.5702 15.0386 16.4419 15.1026L14.9499 15.8486L9.15142 10.0501L9.89878 8.55806C9.96296 8.42994 9.98522 8.28487 9.96242 8.14339C9.93962 8.00191 9.8729 7.87119 9.77171 7.76972L6.48442 4.48516C6.40544 4.40627 6.30833 4.34794 6.20159 4.31527C6.09485 4.2826 5.98172 4.27658 5.87212 4.29775C5.76252 4.31891 5.65977 4.36662 5.57287 4.43668C5.48596 4.50675 5.41756 4.59704 5.37363 4.69966L3.05503 10.1102C3.0014 10.2356 2.98653 10.3742 3.01234 10.5081C3.03816 10.642 3.10346 10.7651 3.19986 10.8616H3.20123ZM4.49237 10.2222L6.23302 6.16433L8.45734 8.39001L7.93132 9.44069L7.49138 10.3206L8.18682 11.0174L13.984 16.8146L14.6808 17.5114L15.5607 17.07L16.6127 16.5454L18.837 18.7683L14.7792 20.5076L4.49237 10.2222ZM12.4373 8.46516V7.09887C13.8868 7.09887 15.2769 7.67466 16.3018 8.69957C17.3267 9.72449 17.9025 11.1146 17.9025 12.564H16.5362C16.5362 11.4769 16.1044 10.4344 15.3357 9.66569C14.567 8.897 13.5244 8.46516 12.4373 8.46516ZM12.4373 4.36629V3C14.9739 3 17.4065 4.00764 19.2001 5.80124C20.9937 7.59484 22.0014 10.0275 22.0014 12.564H20.6351C20.6351 10.3899 19.7714 8.30472 18.234 6.76735C16.6966 5.22998 14.6115 4.36629 12.4373 4.36629Z" fill="white"/>
</svg>
