<svg width="370" height="104" viewBox="0 0 370 104" fill="none" xmlns="http://www.w3.org/2000/svg">
<g clip-path="url(#clip0_12814_2)">
<path d="M350 0H20C8.9543 0 0 8.9543 0 20V84C0 95.0457 8.9543 104 20 104H350C361.046 104 370 95.0457 370 84V20C370 8.9543 361.046 0 350 0Z" fill="#1C1C1E"/>
<path d="M103.288 19.0576V32.5001H101.713L94.388 21.9456H94.2567V32.5001H92.6289V19.0576H94.2042L101.555 29.6383H101.687V19.0576H103.288ZM110.563 32.7101C109.591 32.7101 108.753 32.4957 108.049 32.0669C107.349 31.6337 106.808 31.0298 106.427 30.2553C106.051 29.4764 105.863 28.5706 105.863 27.5379C105.863 26.5052 106.051 25.5951 106.427 24.8074C106.808 24.0154 107.338 23.3984 108.016 22.9564C108.698 22.5101 109.495 22.2869 110.405 22.2869C110.93 22.2869 111.449 22.3745 111.961 22.5495C112.473 22.7245 112.939 23.0089 113.359 23.4028C113.779 23.7922 114.114 24.3086 114.363 24.9518C114.612 25.5951 114.737 26.3871 114.737 27.3279V27.9843H106.966V26.6453H113.162C113.162 26.0764 113.048 25.5688 112.82 25.1225C112.597 24.6761 112.278 24.3239 111.862 24.0657C111.451 23.8075 110.965 23.6784 110.405 23.6784C109.788 23.6784 109.254 23.8316 108.803 24.1379C108.357 24.4398 108.014 24.8337 107.773 25.3194C107.532 25.8051 107.412 26.3258 107.412 26.8815V27.7742C107.412 28.5356 107.543 29.181 107.806 29.7105C108.073 30.2356 108.442 30.636 108.915 30.9117C109.388 31.183 109.937 31.3186 110.563 31.3186C110.97 31.3186 111.337 31.2617 111.665 31.148C111.998 31.0298 112.284 30.8548 112.525 30.6229C112.766 30.3866 112.952 30.0934 113.083 29.7433L114.58 30.1634C114.422 30.671 114.157 31.1173 113.785 31.5024C113.413 31.8831 112.954 32.1807 112.407 32.3951C111.86 32.6051 111.245 32.7101 110.563 32.7101ZM119.378 32.5001L116.306 22.4182H117.934L120.113 30.1372H120.218L122.371 22.4182H124.025L126.151 30.1109H126.256L128.436 22.4182H130.063L126.992 32.5001H125.469L123.263 24.7549H123.106L120.9 32.5001H119.378ZM141.406 32.7101C140.495 32.7101 139.697 32.4935 139.01 32.0603C138.327 31.6271 137.793 31.0211 137.408 30.2422C137.028 29.4633 136.837 28.5531 136.837 27.5117C136.837 26.4615 137.028 25.5447 137.408 24.7615C137.793 23.9782 138.327 23.37 139.01 22.9367C139.697 22.5035 140.495 22.2869 141.406 22.2869C142.316 22.2869 143.112 22.5035 143.795 22.9367C144.482 23.37 145.016 23.9782 145.396 24.7615C145.781 25.5447 145.974 26.4615 145.974 27.5117C145.974 28.5531 145.781 29.4633 145.396 30.2422C145.016 31.0211 144.482 31.6271 143.795 32.0603C143.112 32.4935 142.316 32.7101 141.406 32.7101ZM141.406 31.3186C142.097 31.3186 142.666 31.1414 143.112 30.787C143.558 30.4325 143.889 29.9665 144.103 29.3889C144.318 28.8113 144.425 28.1855 144.425 27.5117C144.425 26.8378 144.318 26.2099 144.103 25.6279C143.889 25.0459 143.558 24.5755 143.112 24.2167C142.666 23.8579 142.097 23.6784 141.406 23.6784C140.714 23.6784 140.145 23.8579 139.699 24.2167C139.253 24.5755 138.922 25.0459 138.708 25.6279C138.493 26.2099 138.386 26.8378 138.386 27.5117C138.386 28.1855 138.493 28.8113 138.708 29.3889C138.922 29.9665 139.253 30.4325 139.699 30.787C140.145 31.1414 140.714 31.3186 141.406 31.3186ZM148.338 32.5001V22.4182H149.835V23.941H149.94C150.124 23.4422 150.456 23.0374 150.938 22.7267C151.419 22.416 151.962 22.2607 152.565 22.2607C152.679 22.2607 152.821 22.2629 152.992 22.2672C153.163 22.2716 153.292 22.2782 153.379 22.2869V23.8622C153.327 23.8491 153.207 23.8294 153.018 23.8032C152.835 23.7725 152.64 23.7572 152.434 23.7572C151.944 23.7572 151.507 23.86 151.121 24.0657C150.741 24.267 150.439 24.547 150.216 24.9059C149.997 25.2603 149.887 25.6651 149.887 26.1202V32.5001H148.338ZM158.716 32.7101C157.876 32.7101 157.134 32.4979 156.491 32.0735C155.847 31.6446 155.344 31.0408 154.981 30.2619C154.618 29.4786 154.436 28.5531 154.436 27.4854C154.436 26.4265 154.618 25.5075 154.981 24.7286C155.344 23.9497 155.85 23.3481 156.497 22.9236C157.145 22.4992 157.893 22.2869 158.742 22.2869C159.398 22.2869 159.917 22.3963 160.298 22.6151C160.683 22.8295 160.976 23.0746 161.177 23.3503C161.383 23.6216 161.542 23.8447 161.656 24.0198H161.788V19.0576H163.337V32.5001H161.84V30.9511H161.656C161.542 31.1348 161.381 31.3668 161.171 31.6468C160.96 31.9225 160.661 32.1697 160.271 32.3885C159.882 32.6029 159.363 32.7101 158.716 32.7101ZM158.926 31.3186C159.547 31.3186 160.072 31.1567 160.501 30.8329C160.93 30.5047 161.256 30.0518 161.479 29.4742C161.702 28.8922 161.814 28.2205 161.814 27.4592C161.814 26.7065 161.704 26.048 161.486 25.4835C161.267 24.9146 160.943 24.4727 160.514 24.1576C160.085 23.8382 159.556 23.6784 158.926 23.6784C158.269 23.6784 157.722 23.8469 157.285 24.1839C156.852 24.5164 156.526 24.9693 156.307 25.5425C156.092 26.1114 155.985 26.7503 155.985 27.4592C155.985 28.1768 156.095 28.8288 156.313 29.4151C156.537 29.9971 156.865 30.461 157.298 30.8067C157.736 31.148 158.278 31.3186 158.926 31.3186ZM170.616 32.7101C169.644 32.7101 168.806 32.4957 168.102 32.0669C167.402 31.6337 166.861 31.0298 166.481 30.2553C166.104 29.4764 165.916 28.5706 165.916 27.5379C165.916 26.5052 166.104 25.5951 166.481 24.8074C166.861 24.0154 167.391 23.3984 168.069 22.9564C168.752 22.5101 169.548 22.2869 170.458 22.2869C170.983 22.2869 171.502 22.3745 172.014 22.5495C172.526 22.7245 172.992 23.0089 173.412 23.4028C173.832 23.7922 174.167 24.3086 174.416 24.9518C174.666 25.5951 174.79 26.3871 174.79 27.3279V27.9843H167.019V26.6453H173.215C173.215 26.0764 173.101 25.5688 172.874 25.1225C172.651 24.6761 172.331 24.3239 171.915 24.0657C171.504 23.8075 171.018 23.6784 170.458 23.6784C169.841 23.6784 169.307 23.8316 168.857 24.1379C168.41 24.4398 168.067 24.8337 167.826 25.3194C167.585 25.8051 167.465 26.3258 167.465 26.8815V27.7742C167.465 28.5356 167.596 29.181 167.859 29.7105C168.126 30.2356 168.496 30.636 168.968 30.9117C169.441 31.183 169.99 31.3186 170.616 31.3186C171.023 31.3186 171.39 31.2617 171.718 31.148C172.051 31.0298 172.338 30.8548 172.578 30.6229C172.819 30.3866 173.005 30.0934 173.136 29.7433L174.633 30.1634C174.475 30.671 174.21 31.1173 173.839 31.5024C173.467 31.8831 173.007 32.1807 172.46 32.3951C171.913 32.6051 171.298 32.7101 170.616 32.7101ZM177.147 32.5001V22.4182H178.643V23.941H178.748C178.932 23.4422 179.265 23.0374 179.746 22.7267C180.227 22.416 180.77 22.2607 181.374 22.2607C181.487 22.2607 181.63 22.2629 181.8 22.2672C181.971 22.2716 182.1 22.2782 182.188 22.2869V23.8622C182.135 23.8491 182.015 23.8294 181.827 23.8032C181.643 23.7725 181.448 23.7572 181.242 23.7572C180.752 23.7572 180.315 23.86 179.93 24.0657C179.549 24.267 179.247 24.547 179.024 24.9059C178.805 25.2603 178.696 25.6651 178.696 26.1202V32.5001H177.147Z" fill="white"/>
<path opacity="0.5" d="M289.391 32.5001V31.3186L293.828 26.4615C294.348 25.8926 294.777 25.3981 295.114 24.9781C295.451 24.5536 295.7 24.1554 295.862 23.7835C296.029 23.4071 296.112 23.0133 296.112 22.602C296.112 22.1294 295.998 21.7203 295.77 21.3746C295.547 21.0289 295.241 20.762 294.852 20.5738C294.462 20.3856 294.025 20.2916 293.539 20.2916C293.022 20.2916 292.572 20.3988 292.187 20.6132C291.806 20.8232 291.511 21.1186 291.301 21.4993C291.095 21.88 290.992 22.3263 290.992 22.8383H289.443C289.443 22.0506 289.625 21.3593 289.988 20.7642C290.351 20.169 290.845 19.7052 291.471 19.3726C292.101 19.0401 292.808 18.8738 293.591 18.8738C294.379 18.8738 295.077 19.0401 295.685 19.3726C296.293 19.7052 296.77 20.1537 297.116 20.7182C297.462 21.2827 297.635 21.9106 297.635 22.602C297.635 23.0965 297.545 23.58 297.365 24.0526C297.19 24.5208 296.884 25.0437 296.447 25.6213C296.013 26.1945 295.412 26.8947 294.641 27.7217L291.622 30.9511V31.0561H297.871V32.5001H289.391ZM302.157 26.4352V32.5001H300.608V19.0576H302.157V23.9935H302.288C302.525 23.4728 302.879 23.0593 303.352 22.753C303.829 22.4423 304.463 22.2869 305.255 22.2869C305.942 22.2869 306.544 22.4248 307.06 22.7005C307.576 22.9718 307.977 23.3896 308.261 23.9541C308.55 24.5142 308.694 25.2275 308.694 26.0939V32.5001H307.145V26.1989C307.145 25.3981 306.938 24.779 306.522 24.3414C306.111 23.8994 305.539 23.6784 304.809 23.6784C304.301 23.6784 303.846 23.7857 303.443 24.0001C303.045 24.2145 302.73 24.5274 302.498 24.9387C302.271 25.35 302.157 25.8489 302.157 26.4352ZM319.694 32.7364C319.055 32.7364 318.475 32.6161 317.954 32.3754C317.433 32.1303 317.02 31.7781 316.714 31.3186C316.407 30.8548 316.254 30.2947 316.254 29.6383C316.254 29.0607 316.368 28.5925 316.596 28.2337C316.823 27.8705 317.127 27.5861 317.508 27.3804C317.889 27.1747 318.309 27.0216 318.768 26.9209C319.232 26.8159 319.698 26.7328 320.166 26.6715C320.779 26.5927 321.275 26.5337 321.656 26.4943C322.041 26.4505 322.321 26.3783 322.496 26.2777C322.676 26.177 322.765 26.002 322.765 25.7526V25.7001C322.765 25.0525 322.588 24.5492 322.234 24.1904C321.884 23.8316 321.352 23.6522 320.639 23.6522C319.899 23.6522 319.319 23.8141 318.899 24.1379C318.479 24.4617 318.184 24.8074 318.013 25.175L316.543 24.6499C316.806 24.0373 317.156 23.5603 317.593 23.219C318.035 22.8733 318.517 22.6326 319.037 22.497C319.562 22.357 320.079 22.2869 320.586 22.2869C320.91 22.2869 321.282 22.3263 321.702 22.4051C322.127 22.4795 322.536 22.6348 322.93 22.8711C323.328 23.1074 323.658 23.464 323.921 23.941C324.183 24.418 324.314 25.0568 324.314 25.8576V32.5001H322.765V31.1348H322.687C322.582 31.3536 322.407 31.5877 322.162 31.8372C321.917 32.0866 321.591 32.2988 321.184 32.4738C320.777 32.6489 320.28 32.7364 319.694 32.7364ZM319.93 31.3449C320.543 31.3449 321.059 31.2245 321.479 30.9839C321.903 30.7432 322.223 30.4325 322.437 30.0518C322.656 29.6711 322.765 29.2707 322.765 28.8507V27.4329C322.7 27.5117 322.555 27.5839 322.332 27.6495C322.113 27.7108 321.86 27.7655 321.571 27.8136C321.286 27.8574 321.009 27.8967 320.737 27.9317C320.47 27.9624 320.254 27.9886 320.087 28.0105C319.685 28.063 319.309 28.1483 318.958 28.2665C318.613 28.3803 318.333 28.5531 318.118 28.785C317.908 29.0126 317.803 29.3233 317.803 29.7171C317.803 30.2553 318.002 30.6623 318.401 30.9379C318.803 31.2092 319.313 31.3449 319.93 31.3449ZM331.211 36.4908C330.463 36.4908 329.82 36.3946 329.282 36.202C328.743 36.0139 328.295 35.7645 327.936 35.4538C327.582 35.1475 327.299 34.8193 327.089 34.4692L328.323 33.6028C328.463 33.7866 328.641 33.9966 328.855 34.2329C329.069 34.4736 329.363 34.6814 329.734 34.8565C330.111 35.0359 330.603 35.1256 331.211 35.1256C332.025 35.1256 332.697 34.9287 333.226 34.5349C333.756 34.141 334.021 33.524 334.021 32.6839V30.636H333.889C333.776 30.8198 333.614 31.0473 333.404 31.3186C333.198 31.5856 332.9 31.824 332.511 32.0341C332.126 32.2397 331.605 32.3426 330.949 32.3426C330.135 32.3426 329.404 32.15 328.756 31.765C328.113 31.3799 327.603 30.8198 327.227 30.0846C326.855 29.3495 326.669 28.4568 326.669 27.4066C326.669 26.374 326.851 25.4747 327.214 24.709C327.577 23.9388 328.083 23.3437 328.73 22.9236C329.378 22.4992 330.126 22.2869 330.975 22.2869C331.631 22.2869 332.152 22.3963 332.537 22.6151C332.927 22.8295 333.224 23.0746 333.43 23.3503C333.64 23.6216 333.802 23.8447 333.916 24.0198H334.073V22.4182H335.57V32.7889C335.57 33.6553 335.373 34.3598 334.979 34.9024C334.589 35.4494 334.064 35.8498 333.404 36.1036C332.747 36.3618 332.016 36.4908 331.211 36.4908ZM331.159 30.9511C331.78 30.9511 332.305 30.8088 332.734 30.5244C333.163 30.24 333.489 29.8309 333.712 29.297C333.935 28.7632 334.047 28.1243 334.047 27.3804C334.047 26.654 333.937 26.0129 333.719 25.4572C333.5 24.9015 333.176 24.4661 332.747 24.151C332.318 23.836 331.789 23.6784 331.159 23.6784C330.502 23.6784 329.955 23.8447 329.518 24.1773C329.085 24.5099 328.759 24.9562 328.54 25.5163C328.325 26.0764 328.218 26.6978 328.218 27.3804C328.218 28.0805 328.328 28.6997 328.546 29.2379C328.77 29.7718 329.098 30.1919 329.531 30.4982C329.969 30.8001 330.511 30.9511 331.159 30.9511ZM342.501 32.7101C341.591 32.7101 340.792 32.4935 340.105 32.0603C339.423 31.6271 338.889 31.0211 338.504 30.2422C338.123 29.4633 337.933 28.5531 337.933 27.5117C337.933 26.4615 338.123 25.5447 338.504 24.7615C338.889 23.9782 339.423 23.37 340.105 22.9367C340.792 22.5035 341.591 22.2869 342.501 22.2869C343.411 22.2869 344.207 22.5035 344.89 22.9367C345.577 23.37 346.111 23.9782 346.492 24.7615C346.877 25.5447 347.069 26.4615 347.069 27.5117C347.069 28.5531 346.877 29.4633 346.492 30.2422C346.111 31.0211 345.577 31.6271 344.89 32.0603C344.207 32.4935 343.411 32.7101 342.501 32.7101ZM342.501 31.3186C343.192 31.3186 343.761 31.1414 344.207 30.787C344.654 30.4325 344.984 29.9665 345.199 29.3889C345.413 28.8113 345.52 28.1855 345.52 27.5117C345.52 26.8378 345.413 26.2099 345.199 25.6279C344.984 25.0459 344.654 24.5755 344.207 24.2167C343.761 23.8579 343.192 23.6784 342.501 23.6784C341.81 23.6784 341.241 23.8579 340.794 24.2167C340.348 24.5755 340.018 25.0459 339.803 25.6279C339.589 26.2099 339.482 26.8378 339.482 27.5117C339.482 28.1855 339.589 28.8113 339.803 29.3889C340.018 29.9665 340.348 30.4325 340.794 30.787C341.241 31.1414 341.81 31.3186 342.501 31.3186Z" fill="white"/>
<path d="M56 28H35C27.8203 28 22 33.8203 22 41V62C22 69.1797 27.8203 75 35 75H56C63.1797 75 69 69.1797 69 62V41C69 33.8203 63.1797 28 56 28Z" fill="white"/>
<path d="M41.5575 42.445C41.5575 42.12 41.5905 41.925 42.1475 41.925H49.6125C50.9125 41.925 51.6325 43.035 52.1525 45.118L52.5725 46.784H53.8425C54.0725 42.056 54.2725 40 54.2725 40C54.2725 40 51.0765 40.36 49.1825 40.36H39.6335L34.5195 40.196V41.566L36.2445 41.892C37.4545 42.132 37.7445 42.388 37.8445 43.498C37.8445 43.498 37.9545 46.768 37.9545 52.138C37.9545 57.523 37.8645 60.748 37.8645 60.748C37.8645 61.721 37.4745 62.081 36.2745 62.321L34.5525 62.651V64L39.6825 63.835H48.2325C50.1675 63.835 54.6225 64 54.6225 64C54.7275 62.83 55.3725 57.52 55.4775 56.936H54.2775L52.9935 59.846C51.9885 62.126 50.5175 62.291 48.8835 62.291H43.9775C42.3475 62.291 41.5625 61.651 41.5625 60.241V52.8C41.5625 52.8 45.1825 52.8 46.3525 52.896C47.2645 52.96 47.8155 53.221 48.1125 54.494L48.5025 56.189H49.9125L49.8225 51.911L50.0145 47.606H48.6235L48.1735 49.496C47.8905 50.74 47.6935 50.966 46.4195 51.096C44.7535 51.266 41.6045 51.236 41.6045 51.236V42.45H41.5545L41.5575 42.445Z" fill="#FF5722"/>
<path d="M92.3366 68V52.6219H95.5879V58.9669H102.188V52.6219H105.432V68H102.188V61.6475H95.5879V68H92.3366ZM122.244 60.311C122.244 61.9879 121.926 63.4146 121.291 64.591C120.66 65.7674 119.799 66.6659 118.708 67.2867C117.621 67.9024 116.4 68.2102 115.043 68.2102C113.677 68.2102 112.45 67.8999 111.364 67.2792C110.278 66.6584 109.419 65.7599 108.788 64.5835C108.158 63.4071 107.842 61.9829 107.842 60.311C107.842 58.634 108.158 57.2073 108.788 56.0309C109.419 54.8546 110.278 53.9585 111.364 53.3428C112.45 52.7221 113.677 52.4117 115.043 52.4117C116.4 52.4117 117.621 52.7221 118.708 53.3428C119.799 53.9585 120.66 54.8546 121.291 56.0309C121.926 57.2073 122.244 58.634 122.244 60.311ZM118.948 60.311C118.948 59.2247 118.785 58.3086 118.46 57.5627C118.139 56.8169 117.686 56.2512 117.101 55.8658C116.515 55.4803 115.829 55.2876 115.043 55.2876C114.257 55.2876 113.572 55.4803 112.986 55.8658C112.4 56.2512 111.945 56.8169 111.619 57.5627C111.299 58.3086 111.139 59.2247 111.139 60.311C111.139 61.3972 111.299 62.3133 111.619 63.0592C111.945 63.8051 112.4 64.3707 112.986 64.7562C113.572 65.1416 114.257 65.3344 115.043 65.3344C115.829 65.3344 116.515 65.1416 117.101 64.7562C117.686 64.3707 118.139 63.8051 118.46 63.0592C118.785 62.3133 118.948 61.3972 118.948 60.311ZM124.653 68V52.6219H130.81C131.941 52.6219 132.885 52.7896 133.641 53.125C134.397 53.4604 134.965 53.926 135.345 54.5217C135.726 55.1124 135.916 55.7932 135.916 56.5641C135.916 57.1648 135.796 57.6929 135.555 58.1484C135.315 58.599 134.985 58.9694 134.564 59.2597C134.149 59.5451 133.673 59.7478 133.138 59.868V60.0181C133.723 60.0432 134.271 60.2084 134.782 60.5137C135.298 60.8191 135.716 61.2471 136.036 61.7977C136.356 62.3434 136.517 62.9941 136.517 63.75C136.517 64.566 136.314 65.2943 135.908 65.9351C135.508 66.5708 134.915 67.0739 134.129 67.4443C133.343 67.8148 132.374 68 131.223 68H124.653ZM127.904 65.3419H130.555C131.461 65.3419 132.121 65.1692 132.537 64.8238C132.952 64.4734 133.16 64.0078 133.16 63.4271C133.16 63.0016 133.058 62.6262 132.852 62.3008C132.647 61.9754 132.354 61.7201 131.974 61.5349C131.598 61.3497 131.15 61.2571 130.63 61.2571H127.904V65.3419ZM127.904 59.057H130.314C130.76 59.057 131.155 58.9794 131.501 58.8242C131.851 58.664 132.126 58.4388 132.327 58.1484C132.532 57.8581 132.635 57.5102 132.635 57.1047C132.635 56.5491 132.437 56.101 132.041 55.7606C131.651 55.4202 131.095 55.25 130.374 55.25H127.904V59.057ZM140.772 58.3061H144.436C145.658 58.3061 146.709 58.5039 147.59 58.8993C148.476 59.2898 149.16 59.8429 149.64 60.5588C150.121 61.2746 150.358 62.1181 150.353 63.0892C150.358 64.0554 150.121 64.9089 149.64 65.6497C149.16 66.3856 148.476 66.9613 147.59 67.3768C146.709 67.7923 145.658 68 144.436 68H138.692V52.6219H141.936V65.3869H144.436C145.022 65.3869 145.515 65.2818 145.916 65.0716C146.316 64.8563 146.619 64.5735 146.824 64.2231C147.035 63.8676 147.137 63.4797 147.132 63.0592C147.137 62.4485 146.907 61.9329 146.441 61.5124C145.981 61.0869 145.313 60.8741 144.436 60.8741H140.772V58.3061ZM154.851 52.6219V68H151.607V52.6219H154.851ZM157.526 52.6219H160.77V62.2933H160.898L167.543 52.6219H170.389V68H167.138V58.3211H167.025L160.342 68H157.526V52.6219ZM165.456 48.5972H167.686C167.681 49.5083 167.343 50.2417 166.672 50.7973C166.006 51.353 165.105 51.6308 163.969 51.6308C162.827 51.6308 161.924 51.353 161.258 50.7973C160.592 50.2417 160.259 49.5083 160.259 48.5972H162.475C162.47 48.9426 162.58 49.253 162.805 49.5283C163.035 49.8036 163.423 49.9413 163.969 49.9413C164.499 49.9413 164.88 49.8061 165.11 49.5358C165.34 49.2655 165.456 48.9526 165.456 48.5972ZM177.383 55.3026V52.6219H190.013V55.3026H185.305V68H182.091V55.3026H177.383ZM192.093 68V52.6219H198.16C199.327 52.6219 200.32 52.8447 201.141 53.2902C201.962 53.7307 202.588 54.344 203.018 55.1299C203.454 55.9108 203.672 56.8119 203.672 57.8331C203.672 58.8543 203.451 59.7553 203.011 60.5362C202.57 61.3172 201.932 61.9254 201.096 62.3609C200.265 62.7964 199.259 63.0141 198.078 63.0141H194.211V60.4086H197.552C198.178 60.4086 198.693 60.301 199.099 60.0857C199.509 59.8654 199.815 59.5626 200.015 59.1771C200.22 58.7867 200.323 58.3387 200.323 57.8331C200.323 57.3225 200.22 56.8769 200.015 56.4965C199.815 56.111 199.509 55.8132 199.099 55.6029C198.688 55.3877 198.168 55.2801 197.537 55.2801H195.344V68H192.093ZM205.784 68V52.6219H216.146V55.3026H209.035V58.9669H215.613V61.6475H209.035V65.3194H216.176V68H205.784ZM218.731 68V52.6219H221.982V58.9669H228.582V52.6219H231.826V68H228.582V61.6475H221.982V68H218.731ZM233.673 71.7094V65.4095H234.717C235.072 65.1542 235.398 64.7937 235.693 64.3282C235.988 63.8576 236.241 63.2094 236.451 62.3834C236.662 61.5524 236.812 60.4662 236.902 59.1246L237.337 52.6219H247.512V65.4095H249.194V71.6943H246.07V68H236.797V71.7094H233.673ZM238.471 65.4095H244.388V55.3026H240.266L240.026 59.1246C239.961 60.1408 239.853 61.0418 239.703 61.8278C239.558 62.6137 239.38 63.302 239.17 63.8927C238.964 64.4784 238.732 64.984 238.471 65.4095ZM255.974 68V65.6572L261.448 60.5888C261.914 60.1383 262.304 59.7328 262.62 59.3724C262.94 59.0119 263.183 58.659 263.348 58.3136C263.513 57.9632 263.596 57.5853 263.596 57.1798C263.596 56.7293 263.493 56.3413 263.288 56.0159C263.083 55.6855 262.802 55.4327 262.447 55.2575C262.091 55.0773 261.689 54.9872 261.238 54.9872C260.767 54.9872 260.357 55.0823 260.007 55.2726C259.656 55.4628 259.386 55.7356 259.196 56.091C259.005 56.4464 258.91 56.8694 258.91 57.36H255.824C255.824 56.3538 256.052 55.4803 256.507 54.7394C256.963 53.9986 257.601 53.4254 258.422 53.0199C259.243 52.6144 260.189 52.4117 261.261 52.4117C262.362 52.4117 263.32 52.6069 264.136 52.9974C264.957 53.3828 265.596 53.9185 266.051 54.6043C266.507 55.2901 266.734 56.076 266.734 56.962C266.734 57.5427 266.619 58.1159 266.389 58.6816C266.164 59.2472 265.761 59.8755 265.18 60.5663C264.599 61.2521 263.781 62.0755 262.725 63.0367L260.48 65.2368V65.3419H266.937V68H255.974ZM275.323 68.3379C274.031 68.3329 272.92 68.015 271.989 67.3843C271.063 66.7535 270.349 65.84 269.849 64.6436C269.353 63.4472 269.108 62.008 269.113 60.326C269.113 58.649 269.361 57.2198 269.856 56.0385C270.357 54.8571 271.07 53.9585 271.996 53.3428C272.927 52.7221 274.036 52.4117 275.323 52.4117C276.609 52.4117 277.715 52.7221 278.642 53.3428C279.573 53.9635 280.288 54.8646 280.789 56.046C281.29 57.2223 281.537 58.649 281.532 60.326C281.532 62.013 281.282 63.4547 280.782 64.6511C280.286 65.8475 279.575 66.761 278.649 67.3918C277.723 68.0225 276.614 68.3379 275.323 68.3379ZM275.323 65.6422C276.204 65.6422 276.907 65.1992 277.433 64.3132C277.958 63.4271 278.219 62.0981 278.214 60.326C278.214 59.1596 278.093 58.1885 277.853 57.4126C277.618 56.6367 277.282 56.0535 276.847 55.663C276.416 55.2726 275.908 55.0773 275.323 55.0773C274.447 55.0773 273.746 55.5153 273.22 56.3914C272.695 57.2674 272.429 58.5789 272.424 60.326C272.424 61.5074 272.542 62.4935 272.777 63.2845C273.017 64.0704 273.355 64.6611 273.791 65.0565C274.226 65.447 274.737 65.6422 275.323 65.6422ZM283.851 68V65.6572L289.325 60.5888C289.79 60.1383 290.181 59.7328 290.496 59.3724C290.816 59.0119 291.059 58.659 291.224 58.3136C291.39 57.9632 291.472 57.5853 291.472 57.1798C291.472 56.7293 291.37 56.3413 291.164 56.0159C290.959 55.6855 290.679 55.4327 290.323 55.2575C289.968 55.0773 289.565 54.9872 289.114 54.9872C288.644 54.9872 288.233 55.0823 287.883 55.2726C287.533 55.4628 287.262 55.7356 287.072 56.091C286.882 56.4464 286.787 56.8694 286.787 57.36H283.701C283.701 56.3538 283.928 55.4803 284.384 54.7394C284.839 53.9986 285.478 53.4254 286.299 53.0199C287.12 52.6144 288.066 52.4117 289.137 52.4117C290.238 52.4117 291.197 52.6069 292.013 52.9974C292.834 53.3828 293.472 53.9185 293.928 54.6043C294.383 55.2901 294.611 56.076 294.611 56.962C294.611 57.5427 294.496 58.1159 294.266 58.6816C294.04 59.2472 293.637 59.8755 293.057 60.5663C292.476 61.2521 291.657 62.0755 290.601 63.0367L288.356 65.2368V65.3419H294.814V68H283.851ZM303.071 68.2102C302.281 68.2052 301.517 68.0726 300.781 67.8123C300.05 67.552 299.395 67.129 298.814 66.5433C298.233 65.9576 297.773 65.1817 297.432 64.2156C297.097 63.2494 296.929 62.063 296.929 60.6564C296.934 59.3649 297.082 58.211 297.372 57.1948C297.668 56.1736 298.088 55.3076 298.634 54.5968C299.184 53.8859 299.843 53.3453 300.609 52.9749C301.374 52.5994 302.233 52.4117 303.184 52.4117C304.21 52.4117 305.116 52.6119 305.902 53.0124C306.688 53.4079 307.319 53.946 307.795 54.6268C308.275 55.3076 308.565 56.071 308.666 56.917H305.459C305.334 56.3814 305.071 55.9609 304.671 55.6555C304.27 55.3501 303.775 55.1975 303.184 55.1975C302.183 55.1975 301.422 55.633 300.901 56.504C300.386 57.375 300.123 58.5589 300.113 60.0557H300.218C300.448 59.6001 300.759 59.2122 301.149 58.8918C301.545 58.5664 301.993 58.3186 302.493 58.1484C302.999 57.9732 303.532 57.8856 304.093 57.8856C305.004 57.8856 305.815 58.1009 306.526 58.5314C307.236 58.9569 307.797 59.5426 308.208 60.2884C308.618 61.0343 308.823 61.8878 308.823 62.849C308.823 63.8902 308.58 64.8163 308.095 65.6272C307.614 66.4382 306.941 67.0739 306.075 67.5345C305.214 67.99 304.213 68.2153 303.071 68.2102ZM303.056 65.6572C303.557 65.6572 304.005 65.5371 304.401 65.2968C304.796 65.0565 305.106 64.7312 305.332 64.3207C305.557 63.9102 305.67 63.4497 305.67 62.9391C305.67 62.4285 305.557 61.9704 305.332 61.5649C305.111 61.1595 304.806 60.8366 304.416 60.5963C304.025 60.356 303.58 60.2359 303.079 60.2359C302.704 60.2359 302.356 60.306 302.035 60.4461C301.72 60.5863 301.442 60.7815 301.202 61.0318C300.967 61.2821 300.781 61.5725 300.646 61.9028C300.511 62.2282 300.443 62.5761 300.443 62.9466C300.443 63.4421 300.556 63.8952 300.781 64.3057C301.012 64.7161 301.322 65.044 301.712 65.2893C302.108 65.5346 302.556 65.6572 303.056 65.6572Z" fill="white"/>
</g>
<defs>
<clipPath id="clip0_12814_2">
<rect width="370" height="104" fill="white"/>
</clipPath>
</defs>
</svg>
