<svg width="31" height="33" viewBox="0 0 31 33" fill="none" xmlns="http://www.w3.org/2000/svg">
<path d="M4.9699 6.41983C4.80402 6.25423 4.58464 6.16407 4.35795 6.16836C4.13127 6.17264 3.91499 6.27103 3.75467 6.4428C3.59436 6.61457 3.50252 6.8463 3.49853 7.08917C3.49453 7.33205 3.57867 7.56711 3.73323 7.74483L5.7609 9.91983C5.12929 10.0084 4.54929 10.34 4.12901 10.8529C3.70873 11.3657 3.47684 12.0248 3.47656 12.7073V22.0823C3.47656 22.8282 3.75312 23.5436 4.24541 24.0711C4.73769 24.5985 5.40537 24.8948 6.10156 24.8948H19.7399L21.4829 26.7636C21.4114 26.7676 21.3398 26.7697 21.2682 26.7698H6.27773C6.58492 27.3402 7.0269 27.8137 7.55919 28.1429C8.09149 28.472 8.69531 28.6452 9.3099 28.6448H21.2682C21.8632 28.6448 22.4349 28.5448 22.9716 28.3586L25.3166 30.8711C25.3973 30.9606 25.4939 31.0319 25.6007 31.081C25.7075 31.1301 25.8223 31.1559 25.9385 31.1569C26.0546 31.158 26.1699 31.1342 26.2774 31.087C26.3849 31.0398 26.4825 30.9701 26.5647 30.8821C26.6468 30.794 26.7117 30.6893 26.7556 30.5741C26.7996 30.4588 26.8217 30.3354 26.8206 30.2109C26.8195 30.0864 26.7954 29.9634 26.7494 29.849C26.7035 29.7347 26.6368 29.6313 26.5532 29.5448L4.9699 6.41983ZM17.9899 23.0198H8.72656V22.0823C8.72656 21.3364 8.45 20.621 7.95772 20.0936C7.46543 19.5661 6.79776 19.2698 6.10156 19.2698H5.22656V15.5198H6.10156C6.73876 15.5198 7.3542 15.2715 7.83311 14.8212C8.31202 14.3709 8.6217 13.7493 8.7044 13.0723L10.6131 15.1173C10.0968 15.8391 9.84291 16.7373 9.89869 17.6448C9.95446 18.5522 10.3161 19.407 10.9162 20.05C11.5164 20.693 12.3142 21.0805 13.1611 21.1402C14.008 21.2 14.8464 20.928 15.5201 20.3748L17.9899 23.0198ZM11.8731 16.4661L14.2601 19.0248C13.9268 19.2284 13.5404 19.309 13.1602 19.2542C12.78 19.1994 12.4272 19.0124 12.1559 18.7217C11.8847 18.4311 11.7101 18.0531 11.659 17.6457C11.6079 17.2384 11.6831 16.8244 11.8731 16.4673M5.22656 12.7073C5.22656 12.4587 5.31875 12.2202 5.48284 12.0444C5.64694 11.8686 5.8695 11.7698 6.10156 11.7698H6.97656V12.7073C6.97656 12.956 6.88438 13.1944 6.72028 13.3702C6.55619 13.5461 6.33363 13.6448 6.10156 13.6448H5.22656V12.7073ZM6.10156 23.0198C5.8695 23.0198 5.64694 22.9211 5.48284 22.7452C5.31875 22.5694 5.22656 22.331 5.22656 22.0823V21.1448H6.10156C6.33363 21.1448 6.55619 21.2436 6.72028 21.4194C6.88438 21.5952 6.97656 21.8337 6.97656 22.0823V23.0198H6.10156ZM20.6849 19.2698C20.3291 19.2694 19.977 19.3468 19.6501 19.4973L21.1866 21.1448H21.5587V21.5448L23.0964 23.1911C23.2369 22.8408 23.3091 22.4635 23.3087 22.0823V12.7073C23.3087 11.9616 23.0323 11.2464 22.5403 10.719C22.0483 10.1916 21.3809 9.89516 20.6849 9.89483H10.6866L12.4366 11.7698H18.0599V12.7073C18.0599 13.0767 18.1278 13.4424 18.2597 13.7836C18.3916 14.1249 18.585 14.4349 18.8287 14.6961C19.321 15.2235 19.9887 15.5198 20.6849 15.5198H21.5599V19.2698H20.6849ZM21.5599 12.7073V13.6448H20.6849C20.4528 13.6448 20.2303 13.5461 20.0662 13.3702C19.9021 13.1944 19.8099 12.956 19.8099 12.7073V11.7698H20.6849C20.917 11.7698 21.1395 11.8686 21.3036 12.0444C21.4677 12.2202 21.5599 12.4587 21.5599 12.7073ZM24.5489 24.7461L25.8147 26.1023C26.4424 25.1398 26.8099 23.9698 26.8099 22.7073V16.1448C26.8101 15.4864 26.6485 14.8395 26.3413 14.2692C26.0341 13.6989 25.5921 13.2253 25.0599 12.8961V22.7073C25.0608 23.4234 24.8844 24.1268 24.5489 24.7461Z" fill="#FF11BC"/>
</svg>
